<?xml version="1.0" encoding="UTF-8"?>
<svg width="73px" height="80px" viewBox="0 0 73 80" version="1.1" xmlns="http://www.w3.org/2000/svg" xmlns:xlink="http://www.w3.org/1999/xlink">
    <!-- Generator: sketchtool 54.1 (76490) - https://sketchapp.com -->
    <title>A5A5134F-6BA3-42D1-9A27-5A1529E5925C</title>
    <desc>Created with sketchtool.</desc>
    <g id="Community" stroke="none" stroke-width="1" fill="none" fill-rule="evenodd">
        <g id="Notifications-Dropdown-Community" transform="translate(-612.000000, -1248.000000)" fill="#B5E9DB" fill-rule="nonzero">
            <path d="M681.001767,1297.75767 C683.065371,1300.08401 685,1302.41034 685,1305.64136 C685,1312.7496 670.29682,1317.5315 648.5,1317.5315 C626.70318,1317.5315 612,1312.7496 612,1305.64136 C612,1302.2811 613.934629,1300.08401 615.998233,1297.75767 C618.577739,1294.91438 621.415194,1291.68336 621.415194,1285.47981 L621.415194,1275.14055 C621.415194,1260.66559 634.05477,1248 648.5,1248 C662.94523,1248 675.584806,1260.53635 675.584806,1274.88207 L675.584806,1285.47981 C675.584806,1291.68336 678.422261,1294.91438 681.001767,1297.75767 Z M648.5,1320.11632 C652.498233,1320.11632 656.367491,1319.98708 659.849823,1319.59935 C658.431095,1324.38126 653.916961,1328 648.5,1328 C643.083039,1328 638.568905,1324.5105 637.150177,1319.59935 C640.632509,1319.98708 644.501767,1320.11632 648.5,1320.11632 Z" id="bell-big"></path>
        </g>
    </g>
</svg>