<?xml version="1.0" encoding="UTF-8"?>
<svg width="10px" height="10px" viewBox="0 0 10 10" version="1.1" xmlns="http://www.w3.org/2000/svg" xmlns:xlink="http://www.w3.org/1999/xlink">
    <!-- Generator: Sketch 54.1 (76490) - https://sketchapp.com -->
    <title>Path</title>
    <desc>Created with Sketch.</desc>
    <g id="Community" stroke="none" stroke-width="1" fill="none" fill-rule="evenodd">
        <g id="Notifications-Dropdown-Community" transform="translate(-859.000000, -2468.000000)" fill="#2A2A2A" fill-rule="nonzero">
            <g id="e-remove" transform="translate(858.000000, 2468.000000)">
                <path d="M10.707,0.293 C10.3165001,-0.0973819383 9.68349985,-0.0973819383 9.293,0.293 L6,3.586 L2.707,0.293 C2.31462111,-0.0859722095 1.69091522,-0.0805523739 1.30518142,0.305181425 C0.919447626,0.690915223 0.91402779,1.31462111 1.293,1.707 L4.586,5 L1.293,8.293 C1.03304342,8.54407447 0.928787403,8.91587789 1.02030284,9.26550732 C1.11181828,9.61513676 1.38486324,9.88818172 1.73449268,9.97969716 C2.08412211,10.0712126 2.45592553,9.96695658 2.707,9.707 L6,6.414 L9.293,9.707 C9.68537889,10.0859722 10.3090848,10.0805524 10.6948186,9.69481858 C11.0805524,9.30908478 11.0859722,8.68537889 10.707,8.293 L7.414,5 L10.707,1.707 C11.0973819,1.31650015 11.0973819,0.683499851 10.707,0.293 Z" id="Path"></path>
            </g>
        </g>
    </g>
</svg>