<?xml version="1.0" encoding="iso-8859-1"?>
<!-- Generator: Adobe Illustrator 16.0.0, SVG Export Plug-In . SVG Version: 6.00 Build 0)  -->
<!DOCTYPE svg PUBLIC "-//W3C//DTD SVG 1.1//EN" "http://www.w3.org/Graphics/SVG/1.1/DTD/svg11.dtd">
<svg version="1.1" id="Capa_1" xmlns="http://www.w3.org/2000/svg" xmlns:xlink="http://www.w3.org/1999/xlink" x="0px" y="0px"
	 width="123.907px" height="123.907px" viewBox="0 0 123.907 123.907" style="enable-background:new 0 0 123.907 123.907;"
	 xml:space="preserve">
<g>
	<path fill="#fff" d="M37.6,103.949c4,4,10.5,4.5,14.7,0.7c4.6-4.1,4.8-11.2,0.5-15.5l-20.1-20.1c-3.9-3.9-3.9-10.2,0-14.1l20.2-20.3
		c4.3-4.3,4.1-11.4-0.5-15.5c-4.3-3.7-10.8-3.2-14.8,0.8l-34.5,34.5c-2.1,2.1-3.1,4.8-3.1,7.5c0,2.7,1,5.4,3.1,7.5L37.6,103.949z"/>
	<path fill="#fff" d="M120.9,54.449l-34.5-34.5c-4-4-10.5-4.5-14.7-0.7c-4.601,4.1-4.8,11.2-0.5,15.5l20.2,20.2c3.899,3.9,3.899,10.2,0,14.1
		L71.1,89.249c-4.3,4.301-4.1,11.4,0.5,15.5c4.2,3.7,10.7,3.2,14.7-0.699l34.5-34.5c2.101-2.101,3.101-4.801,3.101-7.5
		C124,59.249,123,56.549,120.9,54.449z"/>
</g>
<g>
</g>
<g>
</g>
<g>
</g>
<g>
</g>
<g>
</g>
<g>
</g>
<g>
</g>
<g>
</g>
<g>
</g>
<g>
</g>
<g>
</g>
<g>
</g>
<g>
</g>
<g>
</g>
<g>
</g>
</svg>
