<?xml version="1.0" encoding="UTF-8"?>
<svg width="16px" height="16px" viewBox="0 0 16 16" version="1.1" xmlns="http://www.w3.org/2000/svg" xmlns:xlink="http://www.w3.org/1999/xlink">
    <!-- Generator: Sketch 52.5 (67469) - http://www.bohemiancoding.com/sketch -->
    <title>icon-bell</title>
    <desc>Created with Sketch.</desc>
    <defs>
        <path d="M10,14 C10,15.1 9.1,16 8,16 C6.9,16 6,15.1 6,14 L10,14 Z M15,11 C15.6,11 16,11.4 16,12 C16,12.6 15.6,13 15,13 L1,13 C0.4,13 0,12.6 0,12 C0,11.4 0.4,11 1,11 L1.5,11 C2.2,10.3 3,9.3 3,8 L3,5 C3,2.2 5.2,0 8,0 C10.8,0 13,2.2 13,5 L13,8 C13,9.3 13.8,10.3 14.5,11 L15,11 Z" id="path-1"></path>
    </defs>
    <g id="Page-1" stroke="none" stroke-width="1" fill="none" fill-rule="evenodd">
        <g id="Desktop-navigation-specification" transform="translate(-1103.000000, -961.000000)">
            <g id="Group-11-Copy" transform="translate(1103.000000, 955.000000)">
                <g id="bell/active-badge">
                    <g id="icons/ui/bell" transform="translate(0.000000, 6.000000)">
                        <mask id="mask-2" fill="white">
                            <use xlink:href="#path-1"></use>
                        </mask>
                        <use id="icon-color" fill="#FFFFFF" fill-rule="nonzero" xlink:href="#path-1"></use>
                    </g>
                </g>
            </g>
        </g>
    </g>
</svg>