<?xml version="1.0" encoding="UTF-8"?>
<svg width="16px" height="16px" viewBox="0 0 16 16" version="1.1" xmlns="http://www.w3.org/2000/svg" xmlns:xlink="http://www.w3.org/1999/xlink">
    <!-- Generator: Sketch 52.5 (67469) - http://www.bohemiancoding.com/sketch -->
    <title>swap-horizontal</title>
    <desc>Created with Sketch.</desc>
    <g id="Page-1" stroke="none" stroke-width="1" fill="none" fill-rule="evenodd">
        <g id="Desktop-navigation-specification" transform="translate(-992.000000, -1101.000000)" fill="#FFFFFF">
            <g id="user-menu" transform="translate(972.000000, 994.000000)">
                <g id="swap-horizontal" transform="translate(20.000000, 107.000000)">
                    <path d="M5,3 L5,0 L0,4 L5,8 L5,5 L13,5 C13.552,5 14,4.552 14,4 C14,3.448 13.552,3 13,3 L5,3 Z" id="Path"></path>
                    <path d="M11,11 L3,11 C2.448,11 2,11.448 2,12 C2,12.552 2.448,13 3,13 L11,13 L11,16 L16,12 L11,8 L11,11 Z" id="Path"></path>
                </g>
            </g>
        </g>
    </g>
</svg>