<?xml version="1.0" encoding="UTF-8"?>
<svg width="30px" height="30px" viewBox="0 0 30 30" version="1.1" xmlns="http://www.w3.org/2000/svg" xmlns:xlink="http://www.w3.org/1999/xlink">
    <!-- Generator: Sketch 52.5 (67469) - http://www.bohemiancoding.com/sketch -->
    <title>Group</title>
    <desc>Created with Sketch.</desc>
    <defs>
        <rect id="path-1" x="0" y="0" width="30" height="30" rx="15"></rect>
    </defs>
    <g id="Page-1" stroke="none" stroke-width="1" fill="none" fill-rule="evenodd">
        <g id="Desktop-navigation-specification" transform="translate(-1152.000000, -954.000000)">
            <g id="Group-17-Copy" transform="translate(1152.000000, 954.000000)">
                <g id="Group">
                    <mask id="mask-2" fill="white">
                        <use xlink:href="#path-1"></use>
                    </mask>
                    <use id="avatar-pm" fill="#F1F0F0" xlink:href="#path-1"></use>
                    <g id="avatar-/-veteran-/-black-white" mask="url(#mask-2)">
                        <g transform="translate(7.000000, 3.000000)">
                            <path d="M7.89688822,21.1409396 L7.89688822,21.1409396 C11.7365822,21.1409396 14.8492692,24.2536266 14.8492692,28.0933205 L14.8492692,30 L0.944507264,30 L0.944507264,28.0933205 C0.944507264,24.2536266 4.05719424,21.1409396 7.89688822,21.1409396 Z" id="Rectangle-9-Copy-3" fill="#FFFFFF" fill-rule="nonzero"></path>
                            <path d="M14.2778406,29.3959732 L14.2778406,26.1744966 C14.2778406,23.7281347 12.4017005,21.7449664 10.0873644,21.7449664 L5.70641203,21.7449664 C3.39207593,21.7449664 1.51593584,23.7281347 1.51593584,26.1744966 L1.51593584,29.3959732 L14.2778406,29.3959732 Z M5.70641203,21.1409396 L10.0873644,21.1409396 C12.7172918,21.1409396 14.8492692,23.3945398 14.8492692,26.1744966 L14.8492692,30 L0.944507264,30 L0.944507264,26.1744966 C0.944507264,23.3945398 3.07648465,21.1409396 5.70641203,21.1409396 Z" id="Rectangle-9-Copy-3" fill="#262628" fill-rule="nonzero"></path>
                            <path d="M5.51593584,18.9261745 L10.4683168,18.9261745 L10.4683168,22.3760714 C10.4683168,23.7436336 9.35968855,24.8522618 7.99212631,24.8522618 L7.99212631,24.8522618 C6.62456407,24.8522618 5.51593584,23.7436336 5.51593584,22.3760714 L5.51593584,18.9261745 Z" id="Rectangle-8-Copy-3" fill="#F8DAC5" fill-rule="nonzero"></path>
                            <path d="M6.08736441,22.2348122 C6.08736441,23.3467949 6.94015536,24.248235 7.99212631,24.248235 C9.04409726,24.248235 9.89688822,23.3467949 9.89688822,22.2348122 L9.89688822,19.5302013 L6.08736441,19.5302013 L6.08736441,22.2348122 Z M5.51593584,18.9261745 L10.4683168,18.9261745 L10.4683168,22.2348122 C10.4683168,23.6803897 9.35968855,24.8522618 7.99212631,24.8522618 C6.62456407,24.8522618 5.51593584,23.6803897 5.51593584,22.2348122 L5.51593584,18.9261745 Z" id="Rectangle-8-Copy-3" fill="#262628" fill-rule="nonzero"></path>
                            <path d="M2.08736441,9.76510067 L2.08736441,10.7718121 C1.50878038,10.7718121 1.03974536,11.2676041 1.03974536,11.8791946 C1.03974536,12.4907851 1.50878038,12.9865772 2.08736441,12.9865772 L2.08736441,13.9932886 C0.982794907,13.9932886 0.0873644065,13.0467765 0.0873644065,11.8791946 C0.0873644065,10.7116128 0.982794907,9.76510067 2.08736441,9.76510067 Z" id="Oval-9-Copy-5" fill="#262628" fill-rule="nonzero"></path>
                            <path d="M15.9047619,9.76510067 L15.9047619,10.7718121 C15.3261779,10.7718121 14.8571429,11.2676041 14.8571429,11.8791946 C14.8571429,12.4907851 15.3261779,12.9865772 15.9047619,12.9865772 L15.9047619,13.9932886 C14.8001924,13.9932886 13.9047619,13.0467765 13.9047619,11.8791946 C13.9047619,10.7116128 14.8001924,9.76510067 15.9047619,9.76510067 Z" id="Oval-9-Copy-6" fill="#262628" fill-rule="nonzero" transform="translate(14.904762, 11.879195) scale(-1, 1) translate(-14.904762, -11.879195) "></path>
                            <path d="M1.52380952,5.23489933 L4.76190476,2.81879195 L8,2.41610738 L11.2380952,2.81879195 L14.4761905,5.23489933 L14.4761905,15.0674337 C14.4761905,18.6441349 11.5767012,21.5436242 8,21.5436242 L8,21.5436242 C4.42329876,21.5436242 1.52380952,18.6441349 1.52380952,15.0674337 L1.52380952,5.23489933 Z" id="Rectangle-8-Copy-4" fill="#F8DAC5" fill-rule="nonzero"></path>
                            <path d="M10.2778406,15.4067993 L10.2778406,15.9060403 C11.6124583,15.9060403 12.7783436,15.1836112 13.4057778,14.1084717 C13.5365532,14.0988507 13.6685613,14.0939597 13.8016501,14.0939597 C14.0272237,14.0939597 14.2496927,14.10801 14.4683168,14.1353277 L14.4683168,14.6979866 C14.4683168,15.993321 14.1279624,17.2046265 13.5366279,18.2374301 C12.4020122,20.2191093 10.3434001,21.5436242 7.99212631,21.5436242 C5.64085257,21.5436242 3.58224039,20.2191093 2.44762474,18.2374301 C1.85629027,17.2046265 1.51593584,15.993321 1.51593584,14.6979866 L1.51593584,14.101505 C1.61057595,14.0964948 1.70583296,14.0939597 1.80165012,14.0939597 C1.90090383,14.0939597 1.99955649,14.0966799 2.09754502,14.1020537 C2.19664645,15.1156184 3.00706154,15.9060403 3.99212631,15.9060403 L5.70641203,15.9060403 L5.70641203,15.7624347 C5.92077909,15.9814588 6.1187041,16.2183505 6.29803941,16.4708398 C6.84742435,16.3643583 7.41362901,16.3087248 7.99212631,16.3087248 C8.45249217,16.3087248 8.90507321,16.343957 9.34758791,16.4120097 C9.61913287,16.0394059 9.93158598,15.7018317 10.2778406,15.4067993 Z" id="Combined-Shape-Copy-2" fill="#5D5D66" fill-rule="nonzero"></path>
                            <path d="M9.80027067,16.7806281 L9.59621146,17.0606305 L9.26531877,17.0097437 C8.8464033,16.9453203 8.42129,16.9127517 7.99212631,16.9127517 C7.45387887,16.9127517 6.92210127,16.9639812 6.4010981,17.0649618 L6.05334329,17.1323635 L5.84106937,16.8334994 C5.76208676,16.7222984 5.67904865,16.6144031 5.59217297,16.5100671 L3.99212631,16.5100671 C3.26681167,16.5100671 2.60994575,16.178976 2.15527954,15.6481055 C2.27205396,16.4571264 2.53747668,17.2277751 2.93649234,17.9246816 C3.9997054,19.7816515 5.90092481,20.9395973 7.99212631,20.9395973 C10.0833278,20.9395973 11.9845472,19.7816515 13.0477603,17.9246816 C13.4467773,17.2277728 13.7122004,16.4571212 13.8289743,15.6481055 C13.3743617,16.1789156 12.717554,16.5100671 11.9921263,16.5100671 L10.0111274,16.5100671 C9.9381114,16.5977579 9.86778072,16.6879933 9.80027067,16.7806281 Z M1.80165012,14.6979866 C1.89073259,14.6979866 1.97951342,14.70042 2.06793875,14.7052692 L2.08736441,14.3094795 L2.08736441,14.1031659 L1.52914417,14.1641508 C1.54728918,14.3497298 1.58362582,14.5292546 1.63618621,14.700793 C1.69121623,14.6989235 1.74637516,14.6979866 1.80165012,14.6979866 Z M14.3396119,14.7278825 C14.3976866,14.545223 14.4372972,14.3533107 14.4560333,14.1545182 L14.2738043,14.1353277 L13.8968882,14.1353277 L13.8968882,14.6979866 C14.0454771,14.7018152 14.1931391,14.711501 14.3396119,14.7278825 Z M3.99212631,15.9060403 L5.70641203,15.9060403 L5.70641203,15.7624347 C5.92077909,15.9814588 6.1187041,16.2183505 6.29803941,16.4708398 C6.84742435,16.3643583 7.41362901,16.3087248 7.99212631,16.3087248 C8.45249217,16.3087248 8.90507321,16.343957 9.34758791,16.4120097 C9.61913287,16.0394059 9.93158598,15.7018317 10.2778406,15.4067993 L10.2778406,15.9060403 L11.9921263,15.9060403 C12.9795923,15.9060403 13.7915561,15.1117602 13.8874196,14.0946376 C14.0836541,14.0977414 14.2774508,14.1114784 14.4683168,14.1353277 L14.4683168,14.6979866 C14.4683168,15.993321 14.1279624,17.2046265 13.5366279,18.2374301 C12.4020122,20.2191093 10.3434001,21.5436242 7.99212631,21.5436242 C5.64085257,21.5436242 3.58224039,20.2191093 2.44762474,18.2374301 C1.85629027,17.2046265 1.51593584,15.993321 1.51593584,14.6979866 L1.51593584,14.101505 C1.61057595,14.0964948 1.70583296,14.0939597 1.80165012,14.0939597 C1.90090383,14.0939597 1.99955649,14.0966799 2.09754502,14.1020537 C2.19664645,15.1156184 3.00706154,15.9060403 3.99212631,15.9060403 Z" id="Combined-Shape-Copy-2" fill="#262628" fill-rule="nonzero"></path>
                            <path d="M2.46831679,14.6979866 C2.46831679,17.9227365 4.94141055,20.5369128 7.99212631,20.5369128 C11.0428421,20.5369128 13.5159358,17.9227365 13.5159358,14.6979866 L13.5159358,5.75653289 L10.8786588,3.78872647 L7.99212631,3.42976171 L5.10559386,3.78872647 L2.46831679,5.75653289 L2.46831679,14.6979866 Z M1.51593584,5.23489933 L4.75403107,2.81879195 L7.99212631,2.41610738 L11.2302215,2.81879195 L14.4683168,5.23489933 L14.4683168,14.6979866 C14.4683168,18.4787278 11.5688275,21.5436242 7.99212631,21.5436242 C4.41542507,21.5436242 1.51593584,18.4787278 1.51593584,14.6979866 L1.51593584,5.23489933 Z" id="Rectangle-8-Copy-4" fill="#262628" fill-rule="nonzero"></path>
                            <path d="M5.32545964,18.1097694 L5.32545964,17.8729995 C5.32545964,16.6754796 6.2438499,15.704698 7.3767417,15.704698 L8.98846331,15.704698 C10.1213551,15.704698 11.0397454,16.6754796 11.0397454,17.8729995 L11.0397454,18.1182121" id="Path" fill="#5D5D66" fill-rule="nonzero"></path>
                            <path d="M5.23448259,17.5167785 C5.30557061,16.2285025 6.25737969,15.2013423 7.43046575,15.2013423 L8.93473925,15.2013423 C10.1078253,15.2013423 11.0596344,16.2285025 11.1307224,17.5167785 L10.5580367,17.5167785 C10.4891804,16.5547979 9.78463033,15.8053691 8.93473925,15.8053691 L7.43046575,15.8053691 C6.58057467,15.8053691 5.87602459,16.5547979 5.80716829,17.5167785 L5.23448259,17.5167785 Z" id="Combined-Shape" fill="#262628" fill-rule="nonzero"></path>
                            <path d="M13.5238095,7.04697987 C13.5238095,5.69071747 12.5089079,4.58502063 11.2380952,4.53217797 C11.2065035,4.53086433 11.1747536,4.53020134 11.1428571,4.53020134 C10.4225821,4.53020134 9.77700785,4.86827868 9.3404056,5.40250233 C8.95860847,5.67789988 8.49709422,5.83892617 8,5.83892617 C7.50290578,5.83892617 7.04139153,5.67789988 6.6595944,5.40250233 C6.22299215,4.86827868 5.57741787,4.53020134 4.85714286,4.53020134 C4.82524645,4.53020134 4.79349653,4.53086433 4.76190476,4.53217797 C3.49109207,4.58502063 2.47619048,5.69071747 2.47619048,7.04697987 L2.47619048,11.6778523 L1.9047619,11.6778523 C0.556731164,11.6778523 0.384345023,8.54673303 0.380952381,8.45637584 C0.19047619,3.38337021 3.47652491,0 8,0 C12.5234751,0 15.8095238,3.38340336 15.6190476,8.45637584 C15.5656583,9.87829944 15.3571728,11.2751678 14.0952381,11.2751678 L13.5238095,11.2751678 L13.5238095,7.04697987 Z" id="Combined-Shape-Copy-3" fill="#37373D" fill-rule="nonzero"></path>
                            <path d="M15.0480686,8.43242135 C15.2222852,3.79249087 12.2855322,0.604026846 8,0.604026846 C3.7144565,0.604026846 0.777715094,3.79246933 0.951931423,8.4324215 C0.954616163,8.50392495 0.970732241,8.70195885 0.997563035,8.91990645 C1.0407881,9.27102533 1.10373018,9.61921497 1.18856193,9.93692704 C1.38924504,10.6885259 1.65805741,11.0738255 1.9047619,11.0738255 L1.9047619,7.04697987 C1.9047619,5.36983499 3.15872086,3.99434721 4.73944345,3.92861793 C4.77859072,3.92699012 4.81782922,3.9261745 4.85714286,3.9261745 C5.69768236,3.9261745 6.48199447,4.30035416 7.03649407,4.9415956 C7.32225934,5.13214304 7.65321719,5.23489933 8,5.23489933 C8.34678281,5.23489933 8.67774066,5.13214304 8.96350593,4.9415956 C9.51800553,4.30035416 10.3023176,3.9261745 11.1428571,3.9261745 C11.1821708,3.9261745 11.2214093,3.92699012 11.2605565,3.92861793 C12.8412791,3.99434721 14.0952381,5.36983499 14.0952381,7.04697987 L14.0952381,10.671141 C14.7301181,10.671141 14.9875317,10.0447071 15.0480686,8.43242135 Z M13.5238095,7.04697987 C13.5238095,5.69071747 12.5089079,4.58502063 11.2380952,4.53217797 C11.2065035,4.53086433 11.1747536,4.53020134 11.1428571,4.53020134 C10.4225821,4.53020134 9.77700785,4.86827868 9.3404056,5.40250233 C8.95860847,5.67789988 8.49709422,5.83892617 8,5.83892617 C7.50290578,5.83892617 7.04139153,5.67789988 6.6595944,5.40250233 C6.22299215,4.86827868 5.57741787,4.53020134 4.85714286,4.53020134 C4.82524645,4.53020134 4.79349653,4.53086433 4.76190476,4.53217797 C3.49109207,4.58502063 2.47619048,5.69071747 2.47619048,7.04697987 L2.47619048,11.6778523 L1.9047619,11.6778523 C0.556731164,11.6778523 0.384345023,8.54673303 0.380952381,8.45637584 C0.19047619,3.38337021 3.47652491,0 8,0 C12.5234751,0 15.8095238,3.38340336 15.6190476,8.45637584 C15.5656583,9.87829944 15.3571728,11.2751678 14.0952381,11.2751678 L13.5238095,11.2751678 L13.5238095,7.04697987 Z" id="Combined-Shape-Copy-3" fill="#262628" fill-rule="nonzero"></path>
                            <path d="M4,9.06040268 C3.84220436,9.06040268 3.71428571,8.92518667 3.71428571,8.75838926 C3.71428571,8.59159185 3.84220436,8.45637584 4,8.45637584 L6.28571429,8.45637584 C6.44350993,8.45637584 6.57142857,8.59159185 6.57142857,8.75838926 C6.57142857,8.92518667 6.44350993,9.06040268 6.28571429,9.06040268 L4,9.06040268 Z" id="Line-2-Copy-8" fill="#262628" fill-rule="nonzero"></path>
                            <path d="M9.9047619,9.06040268 C9.74696626,9.06040268 9.61904762,8.92518667 9.61904762,8.75838926 C9.61904762,8.59159185 9.74696626,8.45637584 9.9047619,8.45637584 L12.1904762,8.45637584 C12.3482718,8.45637584 12.4761905,8.59159185 12.4761905,8.75838926 C12.4761905,8.92518667 12.3482718,9.06040268 12.1904762,9.06040268 L9.9047619,9.06040268 Z" id="Line-2-Copy-9" fill="#262628" fill-rule="nonzero"></path>
                            <path d="M6.84940008,14.225348 C6.78025604,14.0754165 6.8391877,13.8946231 6.98102763,13.8215346 C7.12286756,13.7484461 7.29390387,13.8107397 7.36304791,13.9606711 C7.48202683,14.2186642 7.76407218,14.3959732 8.0872374,14.3959732 C8.40794392,14.3959732 8.68832958,14.2213498 8.80887666,13.966135 C8.87936381,13.816904 9.05095174,13.7563292 9.19212903,13.8308374 C9.33330632,13.9053456 9.390612,14.0867221 9.32012485,14.2359532 C9.10064959,14.7006126 8.61993527,15 8.0872374,15 C7.55027071,15 7.06635036,14.6957815 6.84940008,14.225348 Z" id="Oval-8-Copy-4" fill="#262628" fill-rule="nonzero"></path>
                            <path d="M6.54238461,16.9872192 C6.39827983,16.919261 6.33357762,16.7406858 6.39786819,16.5883603 C6.46215875,16.4360348 6.63109656,16.3676415 6.77520134,16.4355996 C7.17969301,16.6263532 7.62837321,16.7273048 8.09344338,16.7273048 C8.55421716,16.7273048 8.99892434,16.6282129 9.40056158,16.4408176 C9.5449198,16.3734632 9.71360008,16.442563 9.77731953,16.5951564 C9.84103897,16.7477499 9.77566832,16.9260528 9.63131009,16.9934073 C9.15696235,17.2147278 8.63366436,17.3313317 8.09344338,17.3313317 C7.54816614,17.3313317 7.02015793,17.2125315 6.54238461,16.9872192 Z" id="Oval-8-Copy-5" fill="#262628" fill-rule="nonzero"></path>
                            <path d="M7.70641203,18.3221477 C7.54861638,18.3221477 7.42069774,18.1869316 7.42069774,18.0201342 C7.42069774,17.8533368 7.54861638,17.7181208 7.70641203,17.7181208 L8.46831679,17.7181208 C8.62611243,17.7181208 8.75403107,17.8533368 8.75403107,18.0201342 C8.75403107,18.1869316 8.62611243,18.3221477 8.46831679,18.3221477 L7.70641203,18.3221477 Z" id="Line-3-Copy-2" fill="#262628" fill-rule="nonzero"></path>
                            <polygon id="Line-2-Copy-3" fill="#262628" fill-rule="nonzero" points="9.80165012 10.0671141 9.80165012 9.46308725 13.6111739 9.46308725 13.6111739 10.0671141"></polygon>
                            <polygon id="Line-2-Copy-4" fill="#262628" fill-rule="nonzero" points="2.1826025 10.0671141 2.1826025 9.46308725 5.99212631 9.46308725 5.99212631 10.0671141"></polygon>
                            <polygon id="Line-2-Copy-6" fill="#262628" fill-rule="nonzero" points="6.84926917 10.4697987 6.84926917 9.86577181 8.94450726 9.86577181 8.94450726 10.4697987"></polygon>
                            <path d="M10.3865015,9.46308725 L13.1349835,9.46308725 L13.1349835,11.1089805 C13.1349835,12.4239442 12.0689948,13.4899329 10.7540311,13.4899329 L10.3865015,13.4899329 C9.27451879,13.4899329 8.37307869,12.5884928 8.37307869,11.4765101 L8.37307869,11.4765101 C8.37307869,10.3645273 9.27451879,9.46308725 10.3865015,9.46308725 Z" id="Rectangle-9" fill-opacity="0.3" fill="#FFFFFF" fill-rule="nonzero"></path>
                            <path d="M2.84926917,9.46308725 L5.59775111,9.46308725 C6.70973383,9.46308725 7.61117393,10.3645273 7.61117393,11.4765101 L7.61117393,11.4765101 C7.61117393,12.5884928 6.70973383,13.4899329 5.59775111,13.4899329 L5.23022155,13.4899329 C3.91525786,13.4899329 2.84926917,12.4239442 2.84926917,11.1089805 L2.84926917,9.46308725 Z" id="Rectangle-9" fill-opacity="0.3" fill="#FFFFFF" fill-rule="nonzero"></path>
                            <path d="M9.32545964,10.0671141 C9.11506545,10.0671141 8.94450726,10.2474021 8.94450726,10.4697987 L8.94450726,12.4832215 C8.94450726,12.705618 9.11506545,12.885906 9.32545964,12.885906 L12.1826025,12.885906 C12.3929967,12.885906 12.5635549,12.705618 12.5635549,12.4832215 L12.5635549,10.0671141 L9.32545964,10.0671141 Z M9.32545964,9.46308725 L13.1349835,9.46308725 L13.1349835,12.4832215 C13.1349835,13.0392128 12.708588,13.4899329 12.1826025,13.4899329 L9.32545964,13.4899329 C8.79947417,13.4899329 8.37307869,13.0392128 8.37307869,12.4832215 L8.37307869,10.4697987 C8.37307869,9.9138073 8.79947417,9.46308725 9.32545964,9.46308725 Z" id="Rectangle-9" fill="#262628" fill-rule="nonzero"></path>
                            <path d="M3.42069774,12.4832215 C3.42069774,12.705618 3.59125593,12.885906 3.80165012,12.885906 L6.65879298,12.885906 C6.86918717,12.885906 7.03974536,12.705618 7.03974536,12.4832215 L7.03974536,10.4697987 C7.03974536,10.2474021 6.86918717,10.0671141 6.65879298,10.0671141 L3.42069774,10.0671141 L3.42069774,12.4832215 Z M2.84926917,9.46308725 L6.65879298,9.46308725 C7.18477845,9.46308725 7.61117393,9.9138073 7.61117393,10.4697987 L7.61117393,12.4832215 C7.61117393,13.0392128 7.18477845,13.4899329 6.65879298,13.4899329 L3.80165012,13.4899329 C3.27566464,13.4899329 2.84926917,13.0392128 2.84926917,12.4832215 L2.84926917,9.46308725 Z" id="Rectangle-9" fill="#262628" fill-rule="nonzero"></path>
                            <path d="M6.13929203,11.6871557 C6.17487755,11.8496563 6.07910195,12.0118825 5.92537122,12.0494981 C5.7716405,12.0871137 5.61816936,11.9858744 5.58258383,11.8233738 C5.55343605,11.690271 5.40249798,11.5771812 5.21231113,11.5771812 C5.02198887,11.5771812 4.87099683,11.6904231 4.84198462,11.8236201 C4.80658004,11.9861648 4.65322173,12.087595 4.49944923,12.0501707 C4.34567673,12.0127464 4.24972057,11.8506395 4.28512515,11.6880947 C4.37700084,11.2662873 4.76785214,10.9731544 5.21231113,10.9731544 C5.65641325,10.9731544 6.04702463,11.2658185 6.13929203,11.6871557 Z" id="Oval-6-Copy" fill="#262628" fill-rule="nonzero"></path>
                            <path d="M11.6631016,11.6871557 C11.6986871,11.8496563 11.6029115,12.0118825 11.4491807,12.0494981 C11.29545,12.0871137 11.1419789,11.9858744 11.1063934,11.8233738 C11.0772456,11.690271 10.9263075,11.5771812 10.7361206,11.5771812 C10.5457984,11.5771812 10.3948064,11.6904231 10.3657941,11.8236201 C10.3303896,11.9861648 10.1770313,12.087595 10.0232588,12.0501707 C9.86948626,12.0127464 9.7735301,11.8506395 9.80893467,11.6880947 C9.90081036,11.2662873 10.2916617,10.9731544 10.7361206,10.9731544 C11.1802228,10.9731544 11.5708342,11.2658185 11.6631016,11.6871557 Z" id="Oval-6-Copy-2" fill="#262628" fill-rule="nonzero"></path>
                            <g id="Group" stroke-width="1" fill="none" fill-rule="evenodd" transform="translate(5.142857, 25.973154)">
                                <path d="M4.2171844,1.46757604 C4.1105046,1.12719496 4.00634827,0.851656987 3.90923311,0.674147224 C4.38706748,0.551048931 4.71194871,0.622236606 4.77845764,0.903555125 C4.83111898,1.12626132 4.72807946,1.48957748 4.5055365,1.88854815 C4.46640789,1.95868821 4.42250857,1.9977295 4.3738252,2.01146979 C4.36433627,1.97532486 4.35163917,1.92804909 4.33610565,1.87184547 C4.29973764,1.74025809 4.25973533,1.60334244 4.2171844,1.46757604 Z M2.95791439,0.982966887 C2.93455414,0.998070567 2.90854276,1.01455739 2.8760216,1.0349159 C2.84350044,1.01455739 2.81748906,0.998070567 2.79412881,0.982966887 C2.56109311,0.832460599 2.26610711,0.693484225 1.98807027,0.606335854 C2.25618961,0.221519124 2.57714809,0 2.8760216,0 C3.20639238,0 3.50397379,0.198543915 3.7667578,0.605464514 C3.487907,0.692556109 3.19172931,0.831957335 2.95791439,0.982966887 Z M1.84255051,0.674434904 C1.62432853,1.0500826 1.40837787,1.68068078 1.38439466,2.01342282 C1.33266938,2.00173501 1.28626775,1.96230138 1.24512201,1.88854552 C1.02258051,1.48957748 0.919540995,1.12626132 0.972201684,0.90355787 C1.03877111,0.621983504 1.36419681,0.550946418 1.84255051,0.674434904 Z M3.00143763,1.0675228 C3.24396212,0.916407503 3.63476386,0.740958889 3.8238943,0.696466385 C3.839151,0.721794942 3.85483508,0.750363849 3.87089795,0.782028203 C3.93756253,0.913442541 4.00889621,1.09417456 4.08241009,1.31143819 C4.13990662,1.48136397 4.19541894,1.66364851 4.24682864,1.8459614 C4.26366977,1.90568469 4.2789326,1.96140661 4.29240371,2.01187146 C4.26330118,2.00500614 4.23307357,1.9916495 4.20223955,1.97281258 C4.16745263,1.95156079 4.14125554,1.93032277 4.10828214,1.90012929 C3.52288092,1.36408183 3.48521654,1.33134076 3.28277243,1.20679957 C3.18589899,1.1472042 3.0916649,1.10236154 2.99558981,1.07117989 L3.00143763,1.0675228 Z M1.46121794,2.01150641 C1.488095,1.68929696 1.71316572,1.04568064 1.9286776,0.697452416 C2.13893349,0.748041855 2.49166533,0.912604645 2.74550116,1.06904546 C2.51774877,1.13824744 2.30792748,1.29506322 1.99832578,1.58722426 C2.00874764,1.57738949 1.86353197,1.71510213 1.82462847,1.75130203 C1.76010355,1.81134279 1.70691388,1.85865453 1.65627752,1.90042853 C1.5873493,1.95729296 1.51881594,1.99766461 1.46121794,2.01150641 Z" id="Combined-Shape" fill="#262628"></path>
                            </g>
                        </g>
                    </g>
                </g>
            </g>
        </g>
    </g>
</svg>